<?xml version="1.0" standalone="no"?>
<!DOCTYPE svg PUBLIC "-//W3C//DTD SVG 1.1//EN" "http://www.w3.org/Graphics/SVG/1.1/DTD/svg11.dtd" >
<svg xmlns="http://www.w3.org/2000/svg">
<metadata></metadata>
<defs>
<font id="phantomregular" horiz-adv-x="913" >
<font-face units-per-em="2048" ascent="1536" descent="-512" />
<missing-glyph horiz-adv-x="1024" />
<glyph horiz-adv-x="0" />
<glyph horiz-adv-x="682" />
<glyph horiz-adv-x="0" />
<glyph horiz-adv-x="0" />
<glyph unicode="&#xd;" horiz-adv-x="1024" />
<glyph unicode=" "  horiz-adv-x="1024" />
<glyph unicode="&#x09;" horiz-adv-x="1024" />
<glyph unicode="&#xa0;" horiz-adv-x="1024" />
<glyph unicode="!" horiz-adv-x="286" d="M63 82q0 32 25.5 57t56.5 25q33 0 57.5 -24.5t24.5 -57.5t-24.5 -57.5t-57.5 -24.5q-31 0 -56.5 25t-25.5 57zM63 338v1096h164v-1096h-164z" />
<glyph unicode="&#x22;" horiz-adv-x="569" d="M43 1145l147 301l144 -68l-144 -305zM236 1145l145 301l145 -68l-145 -305z" />
<glyph unicode="#" horiz-adv-x="1183" d="M45 211v164h211v346h-211v164h211v211h162v-211h346v211h164v-211h211v-164h-211v-346h211v-164h-211v-211h-164v211h-346v-211h-162v211h-211zM418 375h346v346h-346v-346z" />
<glyph unicode="$" horiz-adv-x="972" d="M33 492h162q0 -137 85 -233.5t205 -96.5q124 0 209 88q80 83 80 194v9q-3 183 -141 249q-82 41 -166 41q-134 8 -228 109t-94 240q0 119 73 211.5t188 123.5v95h159v-88q65 -17 129 -67t117 -124l-137 -86q-33 56 -80.5 88.5t-95.5 32.5q-78 0 -133.5 -54.5t-55.5 -131.5 q0 -73 50.5 -128t127.5 -59q118 -8 213 -57q42 -22 79.5 -54t74.5 -79t59 -114.5t23 -145.5q0 -189 -131 -320q-107 -107 -240 -127v-90h-159v90q-153 36 -263 173.5t-110 310.5z" />
<glyph unicode="%" horiz-adv-x="1269" d="M45 1100q0 136 98 235t236 99t238 -99.5t100 -234.5q0 -141 -99.5 -239.5t-238.5 -98.5q-140 0 -237 98t-97 240zM141 78l977 1278h8l-979 -1278h-6zM209 1100q0 -72 50.5 -124t119.5 -52q70 0 121 52t51 124q0 69 -51 119.5t-121 50.5q-69 0 -119.5 -50.5t-50.5 -119.5z M551 334q0 141 99 239.5t237 98.5q141 0 238.5 -98t97.5 -240q0 -136 -98 -235t-238 -99q-136 0 -236 99.5t-100 234.5zM717 334q0 -69 50 -119.5t120 -50.5q72 0 123 50.5t51 119.5q0 72 -51 123t-123 51q-70 0 -120 -51t-50 -123z" />
<glyph unicode="&#x26;" horiz-adv-x="1257" d="M55 1434h1030v-164h-741l238 -377h-2q64 -103 184.5 -295.5t183.5 -294.5q47 57 75 137t28 168h163q0 -139 -45.5 -256t-128.5 -194q5 -8 16.5 -25t12.5 -18q7 -11 35.5 -56.5t36.5 -58.5h-191l-41 61q-119 -61 -264 -61q-153 0 -283.5 76.5t-207 207t-76.5 283.5 q0 134 61.5 256t167.5 205zM240 567q0 -167 119 -285t286 -118q91 0 178 41q-42 67 -193.5 308.5t-234.5 375.5q-76 -58 -115.5 -141.5t-39.5 -180.5zM350 954l76 -4l8 -35l-20 -14l6 4q-10 -10 -31 -10z" />
<glyph unicode="'" horiz-adv-x="342" d="M27 1145l145 301l145 -68l-145 -305z" />
<glyph unicode="(" horiz-adv-x="495" d="M33 690q0 153 39 293q26 99 71 199.5t74 148.5t51 78l23 43l74 -53l92 -76q-9 -9 -22 -23t-45.5 -55.5t-60 -83.5t-56.5 -103t-44 -120q-32 -117 -32 -244q0 -75 10 -139q47 -244 221 -471l-129 -100q-207 277 -254 546q-12 70 -12 160z" />
<glyph unicode=")" horiz-adv-x="497" d="M39 111q14 12 51 57t93.5 140t82.5 188q35 144 35 245q0 65 -12 138q-49 253 -219 471l129 100q207 -276 254 -547q12 -71 12 -160q0 -160 -37 -290v2q-59 -245 -229 -471z" />
<glyph unicode="*" horiz-adv-x="706" d="M49 1057v145h137l-104 105l102 98l97 -92v121h145v-131l102 102l103 -98l-103 -105h127v-145h-118l94 -96l-103 -101l-102 105v-140h-145v129l-97 -94l-102 101l98 96h-131z" />
<glyph unicode="+" horiz-adv-x="786" d="M16 635v164h295v297h164v-297h295v-164h-295v-297h-164v297h-295z" />
<glyph unicode="," horiz-adv-x="372" d="M20 -31l203 291l129 -88l-200 -289z" />
<glyph unicode="-" d="M78 635v164h758v-164h-758z" />
<glyph unicode="." horiz-adv-x="309" d="M57 96q0 42 28.5 70.5t68.5 28.5q44 0 72 -28t28 -71q0 -42 -28 -69t-72 -27q-40 0 -68.5 27.5t-28.5 68.5z" />
<glyph unicode="/" horiz-adv-x="790" d="M8 53l627 1393l147 -66l-626 -1392z" />
<glyph unicode="0" horiz-adv-x="931" d="M66 420v594q0 11 2 32.5t14.5 73.5t34.5 97q18 41 46 76.5t69.5 68.5t102 52.5t132.5 19.5t132.5 -19.5t102 -52.5t69.5 -68.5t46 -76.5q21 -45 33 -97t14 -73.5t2 -32.5v-594q0 -11 -2 -32.5t-14 -73.5t-33 -97q-18 -41 -46 -76.5t-69.5 -68.5t-102 -52.5t-132.5 -19.5 t-132.5 19.5t-102 52.5t-69.5 68.5t-46 76.5q-22 45 -34.5 97t-14.5 73.5t-2 32.5zM231 420q0 -6 2 -23t10 -52.5t21 -63.5q58 -117 203 -117q70 0 122.5 30.5t80.5 86.5q32 68 32 139v594q3 67 -32 137q-28 57 -80.5 88t-122.5 31q-145 0 -203 -119q-14 -28 -22 -62 t-10 -55l-1 -20v-594z" />
<glyph unicode="1" horiz-adv-x="524" d="M49 1366l311 80v-1282h127v-164h-419v164h127v1069l-105 -25z" />
<glyph unicode="2" horiz-adv-x="878" d="M51 0l25 102q0 1 1 3q11 34 24.5 72t53.5 133.5t83 177t110 176t137 157.5q64 54 104.5 107.5t51 81.5t10.5 45q-1 94 -57.5 154.5t-136.5 60.5q-79 0 -136 -68.5t-57 -163.5h-164q0 162 104.5 279t252.5 117q147 0 251 -107t107 -272q0 -28 -8 -60t-30 -79t-70.5 -105 t-118.5 -117q-136 -112 -260 -383q-47 -102 -60 -147h566v-164h-783z" />
<glyph unicode="3" horiz-adv-x="974" d="M41 481h164q0 -132 81 -224.5t197 -92.5t197.5 81.5t81.5 196.5t-94 197t-226 82v164q97 0 165.5 56.5t68.5 135.5q0 78 -57.5 135.5t-135.5 57.5q-81 0 -137.5 -68t-56.5 -164h-162q0 162 104 279t252 117q145 0 251 -106t106 -251q0 -160 -121 -262q96 -61 151.5 -159 t55.5 -214q0 -121 -60.5 -223.5t-162 -160.5t-220.5 -58q-185 0 -313.5 140.5t-128.5 340.5z" />
<glyph unicode="4" horiz-adv-x="901" d="M0 575l752 928v-764h98v-164h-98v-575h-164v575h-588zM340 739h248v301z" />
<glyph unicode="5" horiz-adv-x="976" d="M47 442q0 112 72 246l145 -80q-53 -97 -53 -166q0 -116 81.5 -197t196.5 -81q116 0 197.5 81.5t81.5 196.5q0 116 -82 197.5t-197 81.5h-331l110 713h578v-164h-436q-4 -29 -25 -167.5t-33 -217.5h137q180 0 311.5 -131.5t131.5 -311.5q0 -121 -60.5 -223.5t-162 -160.5 t-220.5 -58q-186 0 -314 128t-128 314z" />
<glyph unicode="6" horiz-adv-x="980" d="M23 442q0 163 104 285v-2l592 709h213l-459 -549q178 -3 306 -133.5t128 -309.5q0 -185 -129.5 -313.5t-312.5 -128.5q-186 0 -314 128t-128 314zM186 442q0 -115 81.5 -196.5t197.5 -81.5q115 0 196.5 81t81.5 197t-81.5 197.5t-196.5 81.5t-197 -81.5t-82 -197.5z" />
<glyph unicode="7" horiz-adv-x="872" d="M29 1270v164h825l-475 -1434h-168l424 1270h-606z" />
<glyph unicode="8" horiz-adv-x="983" d="M49 442q0 113 56 212t147 161q-117 104 -117 262q0 146 104 251.5t253 105.5q145 0 250.5 -106t105.5 -251q0 -160 -121 -262q97 -59 152 -157t55 -216q0 -184 -131 -313t-311 -129q-186 0 -314.5 128t-128.5 314zM213 442q0 -115 81.5 -196.5t197.5 -81.5t197 81t81 197 t-81.5 197.5t-196.5 81.5q-116 0 -197.5 -81.5t-81.5 -197.5zM295 1077q0 -80 57.5 -136t139.5 -56q78 0 135 56.5t57 135.5q0 78 -57 135.5t-135 57.5q-81 0 -139 -57.5t-58 -135.5z" />
<glyph unicode="9" horiz-adv-x="983" d="M49 0l461 549q-182 3 -307 132t-125 310q0 186 128 314.5t314 128.5q180 0 310.5 -129.5t130.5 -313.5q0 -157 -103 -282l-596 -709h-213zM240 991q0 -115 82 -196.5t198 -81.5q113 0 195 81.5t82 196.5t-82 197t-195 82q-116 0 -198 -82t-82 -197z" />
<glyph unicode=":" horiz-adv-x="344" d="M63 270q0 50 31 81.5t76 31.5q50 0 80.5 -31t30.5 -82q0 -45 -31 -73.5t-80 -28.5q-45 0 -76 29t-31 73zM63 961q0 48 31 78t76 30q50 0 80.5 -29.5t30.5 -78.5q0 -47 -31 -77t-80 -30q-45 0 -76 30t-31 77z" />
<glyph unicode=";" horiz-adv-x="389" d="M35 74l198 291l134 -91l-201 -288zM102 961q0 48 31 78t76 30q50 0 80 -29.5t30 -78.5q0 -47 -30.5 -77t-79.5 -30q-45 0 -76 30t-31 77z" />
<glyph unicode="&#x3c;" horiz-adv-x="604" d="M8 717l422 422l117 -113l-309 -309l309 -311l-117 -113z" />
<glyph unicode="=" horiz-adv-x="999" d="M78 408v163h844v-163h-844zM78 862v164h844v-164h-844z" />
<glyph unicode="&#x3e;" horiz-adv-x="602" d="M57 406l305 311l-305 309l113 113l424 -422l-424 -424z" />
<glyph unicode="?" horiz-adv-x="937" d="M14 1139q69 135 185.5 215t246.5 80q195 0 330 -135t135 -330q0 -174 -107.5 -302t-275.5 -151v-178h-163v334h81q125 0 213.5 87t88.5 210q0 124 -88.5 212.5t-213.5 88.5q-85 0 -160.5 -53.5t-121.5 -145.5zM365 82q0 32 25 57t56 25q33 0 57.5 -24.5t24.5 -57.5 t-24.5 -57.5t-57.5 -24.5q-31 0 -56 25t-25 57z" />
<glyph unicode="@" horiz-adv-x="1265" d="M53 592q0 162 85 304.5t233 219.5q126 66 272 66q97 0 180 -27q109 -35 197 -112t143 -181h2q47 -78 47 -221q0 -57 -10 -129q-12 -93 -26 -141v2q-22 -80 -37 -101q-19 -21 -52 -26l3 2q-115 -41 -164 -53l53 -86l-84 -54q-109 -53 -250 -53q-95 0 -184 29 q-113 35 -201.5 110.5t-142.5 182.5v-2q-64 122 -64 270zM219 592q0 -95 47 -195v2q83 -159 246 -213q70 -18 131 -18q73 0 152 27q-27 10 -50 30q-34 31 -40 68q-72 -40 -142 -43l4 2q-12 -2 -30 -2q-59 0 -113 26t-90 68q-53 68 -53 166q0 46 6 84q32 126 141.5 222.5 t230.5 103.5h25q83 0 147 -39q1 4 4 14.5t3 13.5q33 -9 108 -24q-66 72 -172 112v-2q-61 19 -131 19q-105 0 -192 -47q-108 -55 -170 -157t-62 -218zM444 512q0 -33 19 -63q22 -28 74 -31h10q69 4 135 68t90 141q4 28 4 37q0 32 -18 61q-30 27 -74 27h-10 q-73 -5 -139.5 -64.5t-83.5 -140.5q-7 -21 -7 -35zM705 293v16q0 15 4 27l28 -21q-3 -2 -14 -10.5t-18 -11.5zM795 195q12 4 32 16l7 2q12 6 16 10l14 -35h-10q-28 0 -59 7zM887 356q30 4 121 35q36 126 36 252q0 88 -26 141v-2l-25 45zM946 885l58 -11l-11 -47 q-17 24 -47 58z" />
<glyph unicode="A" horiz-adv-x="1312" d="M25 0l632 1493l631 -1493h-180l-70 174h-764l-69 -174h-180zM344 336h623q-85 201 -156.5 368.5t-100 235.5t-53.5 129z" />
<glyph unicode="B" horiz-adv-x="1011" d="M78 0v1434h883l-334 -574q14 -4 78 -31q213 -111 213 -387q0 -274 -213 -389q-44 -21 -96.5 -34t-77 -16t-33.5 -3h-420zM240 164h258q65 0 131 37q125 65 125 241t-125 238q-29 17 -62 27.5t-51 12.5l-18 1h-146l320 549h-432v-1106z" />
<glyph unicode="C" horiz-adv-x="1507" d="M53 717q0 138 53.5 271t155.5 235q100 102 241.5 155.5t305.5 55.5l-39 -160q-231 0 -395 -164q-164 -157 -164 -393q0 -234 164 -395q78 -78 180.5 -121t214.5 -43q110 0 212.5 43t180.5 121t121 191t43 243h160q0 -162 -54.5 -303t-156.5 -244q-101 -101 -232 -155 t-274 -54q-146 0 -276.5 54t-231.5 155q-102 102 -155.5 235.5t-53.5 272.5z" />
<glyph unicode="D" horiz-adv-x="1136" d="M78 0v1434h379q8 0 21 -0.5t48.5 -5.5t71 -14t83.5 -27.5t91 -43.5q315 -183 315 -626q0 -83 -14 -163t-47.5 -166.5t-98 -164.5t-155.5 -133q-66 -36 -146 -58.5t-117.5 -27t-51.5 -4.5h-379zM242 164h215q12 0 36.5 2.5t86 20.5t114.5 49q50 28 72 47 q-242 366 -524 802v-921zM309 1270q98 -152 282.5 -431.5t274.5 -418.5q58 119 58 297q0 350 -230 481q-54 32 -116 50t-84.5 20t-36.5 2h-148z" />
<glyph unicode="E" horiz-adv-x="1032" d="M78 0v1434h915v-164h-751v-467h751v-168h-751v-471h751v-164h-915z" />
<glyph unicode="F" horiz-adv-x="995" d="M76 0v1434h917v-164h-753v-471h751v-164h-751v-635h-164z" />
<glyph unicode="G" horiz-adv-x="1402" d="M49 719q0 145 57 277t153 228t228 153t277 57q163 0 313 -76.5t262 -210.5l-114 -109q-90 110 -210.5 174t-250.5 64q-112 0 -214.5 -44t-177 -119t-119 -178t-44.5 -216t44.5 -216t119 -178t177 -119t214.5 -44q117 0 221.5 46t183.5 126v305h-385v158h543v-797h-158 v127q-183 -125 -405 -125q-145 0 -277 56.5t-228 152.5t-153 229t-57 279z" />
<glyph unicode="H" horiz-adv-x="1118" d="M76 0v1434h164v-424h641v424h161v-1434h-161v424h-641v-424h-164zM240 586h641v260h-641v-260z" />
<glyph unicode="I" horiz-adv-x="532" d="M57 0v164h129v1106h-129v164h418v-164h-127v-1106h127v-164h-418z" />
<glyph unicode="J" horiz-adv-x="571" d="M49 0v164q195 0 260 127q33 70 33 141v838h-293v164h459v-1002q0 -107 -51 -209q-20 -43 -50.5 -79.5t-78.5 -70.5t-119.5 -53.5t-159.5 -19.5z" />
<glyph unicode="K" horiz-adv-x="1196" d="M78 0v1434h164v-1141l712 1141h187l-457 -729q73 -133 297 -531l94 -174h-186l-303 541q-35 -57 -156 -248.5t-182 -292.5h-170z" />
<glyph unicode="L" horiz-adv-x="825" d="M78 0v1434h164v-1270h581v-164h-745z" />
<glyph unicode="M" horiz-adv-x="1828" d="M37 0l629 1493l249 -582q147 357 244 584l633 -1495h-174l-459 1079l-155 -379l292 -700h-766l295 702q-49 119 -88 203q-15 34 -35 83.5t-36 88.5q-130 -318 -277 -657q-27 -65 -88 -209t-88 -211h-176zM774 162h279l-138 334z" />
<glyph unicode="N" horiz-adv-x="1480" d="M74 -2v1491l1171 -1159v1087h164v-1472l-1171 1159v-1106h-164z" />
<glyph unicode="O" horiz-adv-x="1536" d="M51 717q0 146 56.5 278.5t152 228.5t228.5 153t280 57q145 0 278 -57t229 -153t153 -229t57 -278t-57 -278t-153 -229t-229 -153t-278 -57q-147 0 -280 57t-228.5 153t-152 228.5t-56.5 278.5zM209 717q0 -113 44 -216.5t119 -178.5t178.5 -119.5t217.5 -44.5 q113 0 216 44.5t178 119.5t119 178.5t44 216.5t-44 216t-119 178t-178 119t-216 44q-114 0 -217.5 -44t-178.5 -119t-119 -178t-44 -216zM643 717q0 49 37.5 86t87.5 37t86.5 -37t36.5 -86q0 -50 -37 -87.5t-86 -37.5q-50 0 -87.5 38t-37.5 87z" />
<glyph unicode="P" horiz-adv-x="1085" d="M57 1434h486q9 0 42.5 -4.5t97 -20t114.5 -37.5q50 -23 94 -58.5t85 -88.5t65 -129.5t24 -167.5t-24 -167.5t-65.5 -129.5t-85 -88.5t-93.5 -59.5q-54 -25 -118.5 -39.5t-93.5 -17t-42 -2.5h-240v-424h-166v586h406q50 0 119 22q-102 141 -605 826zM381 1270 q92 -132 154 -211q245 -336 274 -377q92 89 92 246q0 211 -172 295q-94 47 -186 47h-162z" />
<glyph unicode="Q" horiz-adv-x="1017" d="M16 928q0 91 24 168t65.5 130t86 88.5t95.5 59.5q54 25 118 39.5t93 17.5t41 3h403v-1434h-162v424h-241q-13 0 -41.5 2.5t-92.5 17t-118 39.5q-51 24 -95.5 59.5t-86 88.5t-65.5 129.5t-24 167.5zM180 928q0 -206 174 -297h-2q38 -18 85 -29.5t75 -13.5l27 -2h241v684 h-241h-8q-89 0 -177 -45q-174 -85 -174 -297z" />
<glyph unicode="R" horiz-adv-x="1138" d="M61 1434h519q10 0 36.5 -2.5t84 -15t106.5 -32.5q115 -53 179.5 -149t64.5 -221q0 -123 -66 -219t-178 -152q-53 -26 -78 -33q133 -229 223 -387q130 -221 131 -223h-192l-342 592h-260v-592h-164v756h332zM348 1270l291 -508q44 9 106 31q144 66 144 221q0 69 -40.5 127 t-105.5 94q-35 13 -76 21.5t-61.5 11t-25.5 2.5h-232z" />
<glyph unicode="S" horiz-adv-x="944" d="M53 461h162q0 -124 76 -210.5t182 -86.5t181 75t75 181q0 49 -35 112h2q-33 48 -90.5 75.5t-132.5 27.5q-74 0 -137.5 17.5t-108 46.5t-74 59.5t-49.5 64.5q-22 38 -34.5 87.5t-14.5 71t-2 32.5q0 177 121.5 298.5t298.5 121.5q172 0 296 -135t124 -326h-164 q0 124 -75 210.5t-181 86.5t-182 -75t-76 -181v-5q0 -48 35 -108q63 -102 223 -102q260 0 369 -191q22 -40 34.5 -88.5t14.5 -68.5t2 -31q0 -176 -123.5 -298t-296.5 -122q-116 0 -212.5 61.5t-152 167.5t-55.5 232z" />
<glyph unicode="T" horiz-adv-x="970" d="M23 1270v164h925v-164h-379v-1270h-163v1270h-383z" />
<glyph unicode="U" horiz-adv-x="1273" d="M70 432v1002h161v-1002q0 -8 1.5 -20t10 -39t23 -52.5t45.5 -55t72 -51t107 -36t147 -14.5q111 0 193.5 27.5t121 62t61.5 79t26 65t3 34.5v1002h164v-1002q0 -12 -3 -36t-22.5 -81t-52.5 -106q-82 -111 -216.5 -160t-274.5 -49q-344 0 -492 209q-34 49 -52.5 107.5 t-20.5 79.5t-2 36z" />
<glyph unicode="V" horiz-adv-x="1320" d="M25 1434h174l458 -1080l156 379l-293 701h766l-295 -701q36 -84 106 -253.5t101 -241.5l-147 -60l-148 348q-29 -75 -49 -120l-197 -469zM764 1272l139 -332l139 332h-278z" />
<glyph unicode="W" horiz-adv-x="1828" d="M37 1434h174l455 -1080l159 379l-295 701h766l-292 -701q10 -25 38 -97t45 -110l72 -170q188 447 240 566q34 81 109.5 256t109.5 256h174l-633 -1493l-244 581q-16 -35 -90 -207q-38 -93 -159 -378zM774 1272l141 -332l138 332h-279z" />
<glyph unicode="X" horiz-adv-x="1193" d="M59 0l443 717l-443 717h187l350 -566l350 566h189l-445 -717l445 -717h-189l-350 563q-49 -79 -170 -273t-180 -290h-187z" />
<glyph unicode="Y" horiz-adv-x="1013" d="M61 0l379 717l-379 717h187l289 -539q41 82 131 246l155 293h185l-760 -1434h-187z" />
<glyph unicode="Z" horiz-adv-x="1046" d="M47 0l678 1270h-664v164h938l-677 -1270h663v-164h-938z" />
<glyph unicode="[" horiz-adv-x="538" d="M78 0v1434h418v-164h-254v-1106h254v-164h-418z" />
<glyph unicode="\" horiz-adv-x="790" d="M8 1380l148 66l626 -1393l-147 -65z" />
<glyph unicode="]" horiz-adv-x="538" d="M43 0v164h256v1106h-256v164h420v-1434h-420z" />
<glyph unicode="^" horiz-adv-x="911" d="M33 1028l424 422l422 -422l-113 -117l-309 308l-310 -308z" />
<glyph unicode="_" horiz-adv-x="1056" d="M78 0v166h901v-166h-901z" />
<glyph unicode="`" horiz-adv-x="462" d="M37 1468l33 152l348 -72l-31 -151z" />
<glyph unicode="a" horiz-adv-x="1284" d="M25 0l616 1460l619 -1460h-175l-180 420h-526l-72 -168l-110 -252h-172zM444 582h394l-197 469q-51 -116 -197 -469z" />
<glyph unicode="b" horiz-adv-x="970" d="M78 0v1403h352q10 0 30 -1.5t67 -12.5t87 -29q97 -43 149 -121.5t52 -185.5q0 -74 -32.5 -141.5t-88.5 -116.5q108 -51 169 -144t61 -217q0 -270 -250 -383q-117 -51 -234 -51h-362zM236 162h204q86 0 170 37q154 65 154 235q0 77 -39 137t-113 93q-36 17 -79 27t-64 12 t-31 2h-202v-543zM236 864h194q62 0 121 29q104 45 104 160q0 116 -104 161q-26 13 -56.5 20t-47.5 8l-17 1h-194v-379z" />
<glyph unicode="c" horiz-adv-x="1357" d="M51 700q0 191 94 353t255.5 256t351.5 94q160 0 304.5 -74.5t254.5 -206.5l-111 -112q-86 109 -204.5 173t-243.5 64q-147 0 -272.5 -74t-199 -200t-73.5 -273t73.5 -272.5t199 -198.5t272.5 -73q125 0 242.5 62.5t205.5 170.5l109 -108q-108 -132 -252.5 -206.5 t-304.5 -74.5q-190 0 -351.5 93.5t-255.5 255t-94 351.5z" />
<glyph unicode="d" horiz-adv-x="1116" d="M78 0v1403h371q19 0 52 -3t112.5 -25t144.5 -60q74 -42 130 -101.5t89.5 -121t54 -133t28 -133t7.5 -126.5q0 -64 -8 -125.5t-29.5 -132t-55 -132.5t-89 -121.5t-127.5 -102.5q-64 -34 -142.5 -55.5t-116 -26t-50.5 -4.5h-371zM240 162h209q15 0 37 1.5t83.5 18.5 t112.5 47q223 129 223 471q0 347 -227 474q-51 31 -111.5 48.5t-81.5 19t-36 1.5h-209v-1081z" />
<glyph unicode="e" horiz-adv-x="845" d="M78 0v1403h729v-160h-567v-461h567v-161h-567v-459h567v-162h-729z" />
<glyph unicode="f" horiz-adv-x="811" d="M78 0v1403h729v-160h-567v-461h567v-161h-567v-621h-162z" />
<glyph unicode="g" horiz-adv-x="1378" d="M51 702q0 190 94 351.5t255 255.5t350 94q160 0 307 -75t256 -206l-115 -106q-88 106 -205.5 169.5t-242.5 63.5q-147 0 -272 -74t-198 -200t-73 -273t73 -272t198 -197.5t272 -72.5q115 0 217 44t178 124v297h-541v155h694v-780h-153v125q-178 -123 -395 -123 q-189 0 -350 93.5t-255 255t-94 351.5z" />
<glyph unicode="h" horiz-adv-x="1103" d="M78 0v1403h162v-621h626v621h160v-1403h-160v621h-626v-621h-162z" />
<glyph unicode="i" horiz-adv-x="313" d="M78 0v1403h162v-1403h-162z" />
<glyph unicode="j" horiz-adv-x="526" d="M10 0v162q198 0 256 123q35 68 35 139v979h162v-979q0 -105 -51 -205q-20 -42 -49.5 -77.5t-76 -69t-117.5 -53t-159 -19.5z" />
<glyph unicode="k" horiz-adv-x="1107" d="M78 0v1403h162v-555q131 127 585 555h234l-742 -703l742 -700h-234l-585 553v-553h-162z" />
<glyph unicode="l" horiz-adv-x="616" d="M78 0v1403h162v-1241h372v-162h-534z" />
<glyph unicode="m" horiz-adv-x="1738" d="M51 0l336 1491l485 -1151q280 619 521 1151l290 -1491h-163l-189 965l-465 -1020l-430 1020l-221 -965h-164z" />
<glyph unicode="n" horiz-adv-x="1177" d="M76 0v1464l870 -1077v1016h158v-1464l-868 1075v-1014h-160z" />
<glyph unicode="o" horiz-adv-x="1507" d="M53 700q0 143 55 273.5t148.5 224.5t223.5 149.5t274 55.5q143 0 272.5 -55.5t223 -149.5t149 -224.5t55.5 -273.5t-55.5 -272.5t-149 -223t-223 -149t-272.5 -55.5q-144 0 -274 55.5t-223.5 149t-148.5 223t-55 272.5zM207 700q0 -147 73.5 -272.5t199.5 -198.5t274 -73 q110 0 210.5 43.5t173 116.5t115.5 173.5t43 210.5q0 147 -72.5 273t-197.5 200t-272 74q-148 0 -274 -74t-199.5 -200t-73.5 -273z" />
<glyph unicode="p" horiz-adv-x="997" d="M78 0v1403h393q11 0 41.5 -3t93.5 -18t113 -39q49 -23 92 -58t83 -87t63.5 -127t23.5 -164t-23 -164t-63 -126.5t-83 -86t-93 -57.5q-51 -25 -115 -39t-91 -16t-42 -2h-233v-416h-160zM238 573h233q8 0 29 2t69 13.5t88 29.5h-2q81 42 124.5 115.5t43.5 173.5 q0 210 -166 291q-92 45 -186 45h-233v-670z" />
<glyph unicode="q" horiz-adv-x="1613" d="M53 702q0 190 94 351.5t255 255.5t350 94q144 0 274 -55.5t224 -149.5t149 -223.5t55 -272.5q0 -247 -151 -434l266 -268h-226l-155 156q-188 -154 -436 -154q-189 0 -350 93.5t-255 255t-94 351.5zM209 702q0 -147 73 -272t198 -197.5t272 -72.5q190 0 325 106l-239 240 l112 112l240 -239q108 146 108 323q0 147 -73 273t-199 200t-274 74q-147 0 -272 -74t-198 -200t-73 -273z" />
<glyph unicode="r" horiz-adv-x="1060" d="M78 0v1403h444q11 0 36.5 -2.5t82.5 -14.5t104 -32q112 -52 174 -146t62 -217q0 -124 -62 -217t-174 -145q-10 -4 -26.5 -12t-27.5 -12t-25 -7q59 -105 178 -313t162 -285h-185l-329 580h-254v-580h-160zM238 741h284q84 0 162 35q139 62 139 215q0 70 -38.5 126.5 t-102.5 88.5q-33 14 -73.5 23t-61 11.5t-25.5 2.5h-284v-502z" />
<glyph unicode="s" horiz-adv-x="966" d="M41 479h158q0 -132 83 -226.5t199 -94.5q121 0 205 84q78 81 78 196q-3 180 -139 248q-76 37 -156 37q-134 10 -224.5 108.5t-90.5 231.5q0 142 98.5 241t239.5 99q88 0 169.5 -50.5t139.5 -142.5l-133 -80q-32 54 -79.5 85.5t-96.5 31.5q-75 0 -129 -54.5t-54 -129.5 q0 -72 49.5 -124t124.5 -56q107 -7 205 -56q42 -22 80 -53.5t74 -78.5t57.5 -114.5t22.5 -146.5q0 -174 -129 -303q-128 -131 -312 -131q-121 0 -222.5 64.5t-159.5 174.5t-58 240z" />
<glyph unicode="t" horiz-adv-x="786" d="M25 1243v160h737v-160h-289v-1243h-160v1243h-288z" />
<glyph unicode="u" horiz-adv-x="1089" d="M72 424v979h161v-979q0 -6 2 -22t11.5 -50.5t25.5 -62.5q41 -58 113.5 -92.5t161.5 -34.5q197 0 274 129q16 29 25.5 63t11.5 49.5t2 20.5v979h160v-979q0 -8 -4 -35.5t-18.5 -81t-36.5 -96.5q-22 -39 -54.5 -73t-81.5 -67t-120.5 -52t-157.5 -19t-158 19t-121.5 51.5 t-82 67t-54.5 73.5q-22 43 -36.5 96.5t-18.5 81t-4 35.5z" />
<glyph unicode="v" horiz-adv-x="1052" d="M25 1403h163l336 -993q59 175 174 508.5t166 484.5h164l-504 -1479z" />
<glyph unicode="w" horiz-adv-x="1792" d="M37 1403h172l444 -1057l156 371l-287 686h172l205 -481q28 71 62 152t75.5 178.5t63.5 150.5h172l-291 -686q16 -41 45.5 -109t40.5 -94l72 -168q199 484 366 873l76 184h174l-616 -1460l-240 567q-22 -50 -96 -217l-150 -352z" />
<glyph unicode="x" horiz-adv-x="1177" d="M61 0l433 700l-433 703h183l346 -559l172 279.5l172 279.5h182l-434 -703l434 -700h-182l-344 555q-65 -102 -186 -297t-160 -258h-183z" />
<glyph unicode="y" horiz-adv-x="1064" d="M25 1403h184l323 -572q258 454 324 572h184l-428 -764v-639h-157v639z" />
<glyph unicode="z" horiz-adv-x="716" d="M49 0l397 1243h-374v160h596l-398 -1241h375v-162h-596z" />
<glyph unicode="{" horiz-adv-x="638" d="M35 717l137 231l-39 271q0 57 20.5 100.5t53.5 67.5t68 35.5t69 11.5h248v-164h-248q-15 0 -29 -8q-15 -7 -18 -29l45 -324l-115 -192l33 -51q16 -29 51 -86t37 -60l-12 -43q-11 -39 -25 -121.5t-14 -148.5q0 -26 18 -35q6 -4 13.5 -6t11.5 -2h4h248v-164h-248 q-34 0 -69 11.5t-67.5 34.5t-53.5 65t-21 96q0 130 37 287z" />
<glyph unicode="|" horiz-adv-x="315" d="M78 -61v1593h164v-1593h-164z" />
<glyph unicode="}" horiz-adv-x="643" d="M49 0v164h250q13 0 27 8q17 9 20 29l-47 325l117 189l-117 194l4 39q43 162 43 277q0 29 -33 43l-14 2h-250v164h250q34 0 68.5 -11.5t67 -34.5t53 -65.5t20.5 -97.5q0 -128 -37 -285q17 -28 65.5 -105.5t71.5 -117.5l-139 -232l39 -270q0 -57 -20.5 -100.5t-53 -67.5 t-67 -35.5t-68.5 -11.5h-250z" />
<glyph unicode="~" horiz-adv-x="770" d="M43 1534q139 92 256 92q73 0 129 -22q38 -15 74 -15q31 0 69 17t56.5 30.5t23.5 18.5l97 -125q-9 -9 -40 -30t-93 -45.5t-117 -24.5q-76 0 -131 28q-34 12 -70 12q-27 0 -55 -31t-42 -60.5t-14 -35.5z" />
<glyph unicode="&#xa1;" horiz-adv-x="286" d="M63 0v1096h164v-1096h-164zM63 1352q0 32 25.5 57t56.5 25q33 0 57.5 -24.5t24.5 -57.5t-24.5 -57.5t-57.5 -24.5q-31 0 -56.5 25t-25.5 57z" />
<glyph unicode="&#xa2;" horiz-adv-x="1333" d="M41 719q0 137 50 262.5t136 219.5t206 155t255 74v96h164v-96q245 -33 444 -236l-112 -111q-72 73 -159 122.5t-173 64.5v-1104q180 32 330 182l114 -110q-202 -202 -444 -232v-92h-164v90q-136 13 -256 74t-205.5 155.5t-135.5 221t-50 264.5zM199 719q0 -140 65 -262 t176.5 -200t247.5 -95v1110q-140 -13 -252 -90t-174.5 -198.5t-62.5 -264.5z" />
<glyph unicode="&#xa5;" horiz-adv-x="1091" d="M29 1434h186l330 -586q93 162 332 586h188l-403 -721h174v-164h-209v-47h209v-164h-209v-338h-162v338h-213v164h213v47h-213v164h180l-170 299z" />
<glyph unicode="&#xa6;" horiz-adv-x="309" d="M78 0v713h158v-713h-158zM78 721v713h158v-713h-158z" />
<glyph unicode="&#xa7;" horiz-adv-x="780" d="M45 715v8q0 128 100 235q6 5 17.5 17.5t21.5 19.5q-57 77 -57 168q0 111 78.5 191t191.5 80q71 0 138 -43.5t114 -120.5l-143 -88q-60 80 -109 80q-41 0 -69.5 -29t-28.5 -70q0 -40 25.5 -69.5t64.5 -32.5q21 0 67.5 -9t94.5 -30q182 -97 184 -303v-8q0 -136 -100 -236 l-37 -35q55 -70 55 -170q0 -113 -79.5 -191.5t-190.5 -78.5q-69 0 -136 43t-116 119l141 88q61 -78 111 -78q41 0 69.5 28.5t28.5 69.5q0 39 -26.5 69.5t-65.5 33.5q-80 0 -160 39q-182 89 -184 303zM219 717q0 -71 50.5 -121.5t121.5 -50.5q72 0 125 53q45 45 45 111v8 q0 71 -50.5 121.5t-121.5 50.5q-70 0 -123 -53q-47 -47 -47 -111v-8z" />
<glyph unicode="&#xa8;" horiz-adv-x="663" d="M70 1499q0 42 28 71t68 29q44 0 72 -28.5t28 -71.5q0 -42 -28 -69t-72 -27q-40 0 -68 27.5t-28 68.5zM401 1499q0 43 27.5 71.5t69.5 28.5t69 -28.5t27 -71.5q0 -42 -27 -69t-69 -27t-69.5 27.5t-27.5 68.5z" />
<glyph unicode="&#xad;" d="M78 635v164h758v-164h-758z" />
<glyph unicode="&#xae;" horiz-adv-x="1540" d="M53 717q0 146 56.5 278.5t152 228.5t228.5 153t280 57q145 0 278 -57t229 -153t153 -229t57 -278t-57 -278t-153 -229t-229 -153t-278 -57q-147 0 -280 57t-228.5 153t-152 228.5t-56.5 278.5zM217 717q0 -112 44 -214.5t118 -176.5t176.5 -118t214.5 -44t214.5 44 t176.5 118t118 176.5t44 214.5t-44 214.5t-118 176.5t-176.5 118t-214.5 44t-214.5 -44t-176.5 -118t-118 -176.5t-44 -214.5zM467 246v968h313q71 0 154 -32q166 -78 166 -258q0 -84 -45 -150t-123 -106l-19 -4h5q-8 -2 -10.5 -4.5t-10.5 -4.5q14 -25 80 -143.5t100 -179.5 l47 -86h-153l-221 389h-150v-389h-133zM600 770h180q48 -2 101 21q86 46 86 133q0 43 -24.5 79.5t-63.5 55.5q-20 8 -44.5 13t-39.5 6l-15 1h-180v-309z" />
<glyph unicode="&#xb0;" horiz-adv-x="864" d="M53 1055q0 155 111 267t268 112q154 0 266.5 -112.5t112.5 -266.5q0 -157 -112 -267t-267 -110q-158 0 -268.5 109.5t-110.5 267.5zM219 1055q0 -88 62.5 -151.5t150.5 -63.5q89 0 152 63.5t63 151.5q0 89 -63 152t-152 63q-88 0 -150.5 -63t-62.5 -152z" />
<glyph unicode="&#xb1;" horiz-adv-x="765" d="M6 723v164h295v295h164v-295h295v-164h-295v-297h-164v297h-295zM84 270h598v6h-598v-6z" />
<glyph unicode="&#xb4;" horiz-adv-x="462" d="M43 1548l350 72l31 -152l-348 -71z" />
<glyph unicode="&#xb5;" horiz-adv-x="1087" d="M78 -125v1528h162v-981q0 -67 41 -135q74 -127 272 -127q194 0 272 131q16 29 26.5 62.5t12.5 52.5l2 18v979h162v-981q0 -12 -2 -34.5t-17 -77t-40 -99.5q-23 -39 -55.5 -73t-81.5 -67t-121 -52t-158 -19q-195 0 -313 92v-217h-162z" />
<glyph unicode="&#xb6;" horiz-adv-x="970" d="M25 1055q0 232 190 334q90 45 188 45h506v-164h-86v-1270h-164v1270h-6v-1270h-161v678h-89q-98 0 -188 45q-190 97 -190 332zM485 840h7v430h-7v-430z" />
<glyph unicode="&#xba;" horiz-adv-x="522" d="M53 1227q0 87 61 148t144 61q90 0 150.5 -60.5t60.5 -148.5q0 -86 -60.5 -146.5t-150.5 -60.5q-82 0 -143.5 61.5t-61.5 145.5zM184 1227q0 -32 22 -54t52 -22q34 0 57 22t23 54q0 31 -23.5 54.5t-56.5 23.5q-29 0 -51.5 -23.5t-22.5 -54.5z" />
<glyph unicode="&#xbf;" horiz-adv-x="937" d="M27 465q0 174 107.5 302t275.5 151v178h161v-334h-79q-124 0 -213 -87.5t-89 -209.5q0 -124 88.5 -212.5t213.5 -88.5q85 0 160.5 53t121.5 145l150 -67q-69 -135 -185.5 -215t-246.5 -80q-195 0 -330 135t-135 330zM410 1352q0 33 24.5 57.5t57.5 24.5q31 0 55 -25 t24 -57t-24 -57t-55 -25q-33 0 -57.5 24.5t-24.5 57.5z" />
<glyph unicode="&#xc0;" horiz-adv-x="1320" d="M29 0l633 1493l630 -1493h-180l-70 174h-763l-70 -174h-180zM348 336h623q-302 715 -309 733zM475 1468l33 152l348 -72l-31 -151z" />
<glyph unicode="&#xc1;" horiz-adv-x="1323" d="M31 0l633 1493l630 -1493h-180l-70 174h-763l-70 -174h-180zM350 336h623q-302 715 -309 733zM451 1548l350 72l28 -152l-348 -71z" />
<glyph unicode="&#xc2;" horiz-adv-x="1333" d="M35 0l633 1493l630 -1493h-180l-69 174h-764l-70 -174h-180zM354 336h623q-302 715 -309 733zM381 1548l274 60l31 -156l-276 -55zM651 1452l29 156l278 -60l-32 -151z" />
<glyph unicode="&#xc3;" horiz-adv-x="1337" d="M37 0l633 1493l630 -1493h-180l-69 174h-764l-70 -174h-180zM315 1540q136 92 254 92q73 0 129 -22q38 -15 74 -15q31 0 69 17t57 30.5t24 18.5l96 -125q-10 -10 -40 -30t-92 -45t-118 -25q-74 0 -131 28q-50 13 -70 13q-27 0 -54 -31.5t-40.5 -60.5t-13.5 -35zM356 336 h623q-302 715 -309 733z" />
<glyph unicode="&#xc4;" horiz-adv-x="1331" d="M33 0l633 1493l630 -1493h-180l-69 174h-764l-70 -174h-180zM352 336h623q-302 715 -309 733zM408 1499q0 42 28 71t68 29q44 0 72 -28.5t28 -71.5q0 -42 -28 -69t-72 -27q-40 0 -68 27.5t-28 68.5zM739 1499q0 43 26 71.5t66 28.5q45 0 73 -28.5t28 -71.5q0 -42 -28 -69 t-73 -27q-40 0 -66 27.5t-26 68.5z" />
<glyph unicode="&#xc6;" horiz-adv-x="1531" d="M33 0l608 1434h346v-164h-231q47 -112 143 -339t143 -339h287v-164h-221q6 -16 14 -34t17 -39.5t14 -32.5l70 -158h278v-164h-385l-182 428h-545l-102 -246q-14 -31 -41 -95.5t-37 -86.5h-176zM457 592h407l-205 479q-80 -192 -102 -248z" />
<glyph unicode="&#xc8;" horiz-adv-x="1011" d="M68 0v1434h915v-164h-752v-467h752v-168h-752v-471h752v-164h-915zM322 1509l30 152l342 -72l-30 -151z" />
<glyph unicode="&#xc9;" horiz-adv-x="1009" d="M68 0v1434h915v-164h-752v-467h752v-168h-752v-471h752v-164h-915zM317 1589l342 72l31 -152l-342 -71z" />
<glyph unicode="&#xca;" horiz-adv-x="1028" d="M72 0v1434h915v-164h-751v-467h751v-168h-751v-471h751v-164h-915zM227 1589l273 56l28 -152l-268 -55zM571 1493l33 152l268 -56l-30 -151z" />
<glyph unicode="&#xcb;" horiz-adv-x="1026" d="M74 0v1434h915v-164h-751v-467h751v-168h-751v-471h751v-164h-915zM264 1534q0 42 26 69t66 27q43 0 71 -27t28 -69q0 -41 -28 -67.5t-71 -26.5q-40 0 -66 26.5t-26 67.5zM584 1534q0 42 28 69t68 27q43 0 69.5 -26.5t26.5 -69.5q0 -41 -26.5 -67.5t-69.5 -26.5 q-40 0 -68 26.5t-28 67.5z" />
<glyph unicode="&#xcc;" horiz-adv-x="438" d="M31 1452l30 154l347 -72l-31 -154zM143 0v1417h162v-1417h-162z" />
<glyph unicode="&#xcd;" horiz-adv-x="438" d="M29 1534l346 72l31 -154l-347 -72zM137 0v1417h162v-1417h-162z" />
<glyph unicode="&#xce;" horiz-adv-x="624" d="M27 1534l272 55l33 -153l-275 -56zM231 0v1417h162v-1417h-162zM293 1436l33 153l272 -55l-31 -154z" />
<glyph unicode="&#xcf;" horiz-adv-x="479" d="M31 1483q0 42 27 70t67 28q44 0 72 -27.5t28 -70.5q0 -41 -28 -67.5t-72 -26.5q-40 0 -67 26.5t-27 67.5zM160 0v1417h162v-1417h-162zM252 1483q0 42 28 70t68 28q43 0 70.5 -27.5t27.5 -70.5q0 -41 -27.5 -67.5t-70.5 -26.5q-40 0 -68 26.5t-28 67.5z" />
<glyph unicode="&#xd0;" horiz-adv-x="1357" d="M37 635v164h256v635h377q17 0 51 -3t115.5 -26t148.5 -62q94 -54 159.5 -131.5t98.5 -164.5t46.5 -166t13.5 -164q0 -83 -14.5 -163t-48 -166.5t-99 -164.5t-156.5 -133q-65 -36 -146 -58.5t-118.5 -27t-50.5 -4.5h-377v635h-256zM455 164h215q13 0 37.5 2.5t86 20.5 t113.5 49q234 132 234 481t-238 483q-52 31 -113 48.5t-83.5 19.5t-36.5 2h-215v-471h254v-164h-254v-471z" />
<glyph unicode="&#xd1;" horiz-adv-x="1474" d="M72 -2v1491l1173 -1159v1087h162v-1472l-1171 1159v-1106h-164zM354 1534q139 92 256 92q73 0 129 -22q37 -15 74 -15q31 0 69 17t57 30.5t24 18.5l96 -125q-9 -9 -40 -30t-93 -45.5t-117 -24.5q-76 0 -131 28q-34 12 -70 12q-27 0 -54.5 -31.5t-41.5 -60.5t-14 -35z" />
<glyph unicode="&#xd2;" horiz-adv-x="1523" d="M45 717q0 146 56.5 278.5t152 228.5t228.5 153t280 57q145 0 278 -57t229 -153t153 -229t57 -278t-57 -278t-153 -229t-229 -153t-278 -57q-147 0 -280 57t-228.5 153t-152 228.5t-56.5 278.5zM203 717q0 -113 44 -216.5t119 -178.5t178.5 -119.5t217.5 -44.5 q113 0 216 44.5t178 119.5t119 178.5t44 216.5t-44 216t-119 178t-178 119t-216 44q-114 0 -217.5 -44t-178.5 -119t-119 -178t-44 -216zM571 1468l31 152l348 -72l-28 -151zM637 717q0 49 37.5 86t87.5 37t86.5 -37t36.5 -86q0 -50 -37 -87.5t-86 -37.5q-50 0 -87.5 38 t-37.5 87z" />
<glyph unicode="&#xd3;" horiz-adv-x="1523" d="M45 717q0 146 56.5 278.5t152 228.5t228.5 153t280 57q145 0 278 -57t229 -153t153 -229t57 -278t-57 -278t-153 -229t-229 -153t-278 -57q-147 0 -280 57t-228.5 153t-152 228.5t-56.5 278.5zM203 717q0 -113 44 -216.5t119 -178.5t178.5 -119.5t217.5 -44.5 q113 0 216 44.5t178 119.5t119 178.5t44 216.5t-44 216t-119 178t-178 119t-216 44q-114 0 -217.5 -44t-178.5 -119t-119 -178t-44 -216zM580 1548l350 72l31 -152l-349 -71zM637 717q0 49 37.5 86t87.5 37t86.5 -37t36.5 -86q0 -50 -37 -87.5t-86 -37.5q-50 0 -87.5 38 t-37.5 87z" />
<glyph unicode="&#xd4;" horiz-adv-x="1527" d="M47 717q0 146 56.5 278.5t152 228.5t228.5 153t280 57q145 0 278 -57t229 -153t153 -229t57 -278t-57 -278t-153 -229t-229 -153t-278 -57q-147 0 -280 57t-228.5 153t-152 228.5t-56.5 278.5zM205 717q0 -113 44 -216.5t119 -178.5t178.5 -119.5t217.5 -44.5 q113 0 216 44.5t178 119.5t119 178.5t44 216.5t-44 216t-119 178t-178 119t-216 44q-114 0 -217.5 -44t-178.5 -119t-119 -178t-44 -216zM475 1548l275 60l32 -156l-278 -55zM639 717q0 49 37.5 86t87.5 37t86.5 -37t36.5 -86q0 -50 -37 -87.5t-86 -37.5q-50 0 -87.5 38 t-37.5 87zM745 1452l31 156l277 -60l-33 -151z" />
<glyph unicode="&#xd5;" horiz-adv-x="1527" d="M47 717q0 146 56.5 278.5t152 228.5t228.5 153t280 57q145 0 278 -57t229 -153t153 -229t57 -278t-57 -278t-153 -229t-229 -153t-278 -57q-147 0 -280 57t-228.5 153t-152 228.5t-56.5 278.5zM205 717q0 -113 44 -216.5t119 -178.5t178.5 -119.5t217.5 -44.5 q113 0 216 44.5t178 119.5t119 178.5t44 216.5t-44 216t-119 178t-178 119t-216 44q-114 0 -217.5 -44t-178.5 -119t-119 -178t-44 -216zM424 1534q136 92 254 92q73 0 129 -22q37 -15 74 -15q31 0 69 17t56.5 30.5t23.5 18.5l96 -125q-10 -10 -40 -30t-91.5 -45t-117.5 -25 q-77 0 -132 28q-34 12 -69 12q-27 0 -54.5 -31.5t-41 -60.5t-13.5 -35zM639 717q0 49 37.5 86t87.5 37t86.5 -37t36.5 -86q0 -50 -37 -87.5t-86 -37.5q-50 0 -87.5 38t-37.5 87z" />
<glyph unicode="&#xd6;" horiz-adv-x="1527" d="M47 717q0 146 56.5 278.5t152 228.5t228.5 153t280 57q145 0 278 -57t229 -153t153 -229t57 -278t-57 -278t-153 -229t-229 -153t-278 -57q-147 0 -280 57t-228.5 153t-152 228.5t-56.5 278.5zM205 717q0 -113 44 -216.5t119 -178.5t178.5 -119.5t217.5 -44.5 q113 0 216 44.5t178 119.5t119 178.5t44 216.5t-44 216t-119 178t-178 119t-216 44q-114 0 -217.5 -44t-178.5 -119t-119 -178t-44 -216zM498 1499q0 43 27 71.5t67 28.5q44 0 72 -28.5t28 -71.5q0 -42 -28 -69t-72 -27q-40 0 -67 27.5t-27 68.5zM639 717q0 49 37.5 86 t87.5 37t86.5 -37t36.5 -86q0 -50 -37 -87.5t-86 -37.5q-50 0 -87.5 38t-37.5 87zM827 1499q0 43 27.5 71.5t69.5 28.5t69 -28.5t27 -71.5q0 -42 -27 -69t-69 -27t-69.5 27.5t-27.5 68.5z" />
<glyph unicode="&#xd7;" horiz-adv-x="763" d="M57 508l209 209l-209 211l115 114l211 -211l209 211l115 -114l-211 -211l211 -209l-115 -115l-209 209l-211 -209z" />
<glyph unicode="&#xd8;" horiz-adv-x="1560" d="M59 111l160 159q-156 196 -156 447q0 146 56.5 278.5t152 228.5t228.5 153t280 57q123 0 238 -41.5t207 -116.5l159 162l117 -115l-162 -162q158 -191 158 -444q0 -145 -57 -278t-153 -229t-229 -153t-278 -57q-254 0 -446 158l-162 -162zM225 717q0 -191 109 -330 l776 776q-137 107 -330 107q-112 0 -215 -44t-177.5 -118t-118.5 -176.5t-44 -214.5zM449 270q135 -106 331 -106q149 0 276.5 74t202 201.5t74.5 277.5q0 196 -108 330z" />
<glyph unicode="&#xd9;" horiz-adv-x="1265" d="M66 432v1002h161v-1002q0 -8 1.5 -20t10 -39t23 -52.5t45.5 -55t72 -51t107 -36t147 -14.5q111 0 193.5 27.5t121 62t61.5 79t26 65t3 34.5v1002h164v-1002q0 -12 -3 -36t-22.5 -81t-52.5 -106q-82 -111 -216.5 -160t-274.5 -49q-344 0 -492 209q-34 49 -52.5 107.5 t-20.5 79.5t-2 36zM459 1468l33 152l348 -72l-31 -151z" />
<glyph unicode="&#xda;" horiz-adv-x="1265" d="M66 432v1002h161v-1002q0 -8 1.5 -20t10 -39t23 -52.5t45.5 -55t72 -51t107 -36t147 -14.5q111 0 193.5 27.5t121 62t61.5 79t26 65t3 34.5v1002h164v-1002q0 -12 -3 -36t-22.5 -81t-52.5 -106q-82 -111 -216.5 -160t-274.5 -49q-344 0 -492 209q-34 49 -52.5 107.5 t-20.5 79.5t-2 36zM420 1548l350 72l31 -152l-350 -71z" />
<glyph unicode="&#xdb;" horiz-adv-x="1269" d="M68 432v1002h161v-1002q0 -8 1.5 -20t10 -39t23 -52.5t45.5 -55t72 -51t107 -36t147 -14.5q111 0 193.5 27.5t121 62t61.5 79t26 65t3 34.5v1002h164v-1002q0 -12 -3 -36t-22.5 -81t-52.5 -106q-82 -111 -216.5 -160t-274.5 -49q-344 0 -492 209q-34 49 -52.5 107.5 t-20.5 79.5t-2 36zM350 1548l275 60l30 -156l-276 -55zM621 1452l30 156l277 -60l-33 -151z" />
<glyph unicode="&#xdc;" horiz-adv-x="1269" d="M68 432v1002h161v-1002q0 -8 1.5 -20t10 -39t23 -52.5t45.5 -55t72 -51t107 -36t147 -14.5q111 0 193.5 27.5t121 62t61.5 79t26 65t3 34.5v1002h164v-1002q0 -12 -3 -36t-22.5 -81t-52.5 -106q-82 -111 -216.5 -160t-274.5 -49q-344 0 -492 209q-34 49 -52.5 107.5 t-20.5 79.5t-2 36zM356 1499q0 43 26.5 71.5t66.5 28.5q44 0 72 -28.5t28 -71.5q0 -42 -28 -69t-72 -27q-40 0 -66.5 27.5t-26.5 68.5zM684 1499q0 43 27 71.5t69 28.5q43 0 71 -28.5t28 -71.5q0 -41 -28 -68.5t-71 -27.5q-42 0 -69 27t-27 69z" />
<glyph unicode="&#xdf;" horiz-adv-x="964" d="M78 0v1403h414q10 0 31.5 -2t73 -13.5t95.5 -31.5q39 -20 73 -47t67 -68t52 -100t19 -129q0 -82 -44.5 -172.5t-100.5 -145.5q145 -105 145 -305q0 -57 -13 -107t-34 -86t-49.5 -66t-56 -49t-58.5 -34q-45 -20 -106.5 -31.5t-90 -13.5t-42.5 -2v162q106 0 174 31 q116 56 116 196q0 146 -116 199q-30 15 -73.5 23t-71.5 9l-29 1v161q106 0 174 31q116 53 116 199q0 143 -116 196q-30 16 -64 24.5t-53 9.5l-18 1h-252v-1243h-162z" />
<glyph unicode="&#xe0;" horiz-adv-x="1292" d="M29 0l616 1460l619 -1460h-174l-181 420h-526l-72 -168l-110 -252h-172zM449 582h393l-197 469q-34 -77 -196 -469zM461 1436l28 151l342 -71l-30 -152z" />
<glyph unicode="&#xe1;" horiz-adv-x="1292" d="M29 0l616 1460l619 -1460h-174l-181 420h-526l-72 -168l-110 -252h-172zM449 582h393l-197 469q-34 -77 -196 -469zM461 1516l342 71l31 -151l-342 -72z" />
<glyph unicode="&#xe2;" horiz-adv-x="1304" d="M35 0l616 1460l619 -1460h-174l-181 420h-526l-72 -168l-110 -252h-172zM375 1516l270 55l31 -152l-270 -55zM455 582h393l-197 469q-34 -77 -196 -469zM639 1419l33 152l268 -55l-31 -152z" />
<glyph unicode="&#xe3;" horiz-adv-x="1308" d="M37 0l616 1460l619 -1460h-174l-180 420h-527l-72 -168l-110 -252h-172zM301 1495q137 90 250 90q75 0 127 -24q37 -13 72 -13q19 0 40.5 6.5t39.5 16t32.5 19t23.5 16.5l9 6l92 -119q-3 -7 -35.5 -29t-92 -45.5t-114.5 -23.5q-75 0 -129 24q-43 15 -67 15 q-28 0 -69.5 -12.5t-70 -25.5t-28.5 -16zM457 582h393l-197 469q-34 -77 -196 -469z" />
<glyph unicode="&#xe4;" horiz-adv-x="1304" d="M35 0l616 1460l619 -1460h-174l-181 420h-526l-72 -168l-110 -252h-172zM401 1466q0 42 26.5 69.5t66.5 27.5q44 0 71 -27t27 -70q0 -42 -27 -68t-71 -26q-40 0 -66.5 26.5t-26.5 67.5zM455 582h393l-197 469q-34 -77 -196 -469zM723 1466q0 42 27 69.5t67 27.5 q43 0 69.5 -27t26.5 -70q0 -41 -26.5 -67.5t-69.5 -26.5q-40 0 -67 26.5t-27 67.5z" />
<glyph unicode="&#xe8;" horiz-adv-x="819" d="M68 0v1403h729v-160h-568v-461h568v-161h-568v-459h568v-162h-729zM207 1509l31 152l342 -72l-31 -151z" />
<glyph unicode="&#xe9;" horiz-adv-x="817" d="M68 0v1403h729v-160h-568v-461h568v-161h-568v-459h568v-162h-729zM193 1589l342 72l30 -152l-342 -71z" />
<glyph unicode="&#xea;" horiz-adv-x="841" d="M74 0v1403h729v-160h-567v-461h567v-161h-567v-459h567v-162h-729zM106 1589l273 56l29 -152l-269 -55zM469 1493l33 152l268 -56l-31 -151z" />
<glyph unicode="&#xeb;" horiz-adv-x="833" d="M74 0v1403h729v-160h-567v-461h567v-161h-567v-459h567v-162h-729zM139 1530q0 42 26 69t66 27q43 0 71 -27t28 -69q0 -41 -28 -67.5t-71 -26.5q-40 0 -66 26.5t-26 67.5zM459 1530q0 42 28 69t68 27q43 0 69.5 -26.5t26.5 -69.5q0 -41 -26.5 -67.5t-69.5 -26.5 q-40 0 -68 26.5t-28 67.5z" />
<glyph unicode="&#xec;" horiz-adv-x="434" d="M31 1436l28 151l344 -71l-30 -152zM141 0v1403h160v-1403h-160z" />
<glyph unicode="&#xed;" horiz-adv-x="434" d="M29 1516l342 71l30 -151l-344 -72zM135 0v1403h160v-1403h-160z" />
<glyph unicode="&#xee;" horiz-adv-x="618" d="M27 1516l270 55l31 -152l-273 -55zM229 0v1403h160v-1403h-160zM291 1419l31 152l270 -55l-31 -152z" />
<glyph unicode="&#xef;" horiz-adv-x="475" d="M33 1466q0 43 26 70t66 27q44 0 71 -27t27 -70q0 -42 -27 -68t-71 -26q-40 0 -66 26.5t-26 67.5zM158 0v1403h161v-1403h-161zM252 1466q0 42 27 69.5t67 27.5q43 0 69.5 -27t26.5 -70q0 -41 -26.5 -67.5t-69.5 -26.5q-40 0 -67 26.5t-27 67.5z" />
<glyph unicode="&#xf1;" horiz-adv-x="1169" d="M72 0v1464l868 -1077v1016h158v-1464l-869 1075v-1014h-157zM236 1501q140 90 249 90q75 0 127 -24q41 -13 74 -13q29 0 66 16.5t55.5 29.5t23.5 18l93 -121q-9 -9 -39 -29t-90 -43.5t-113 -23.5q-77 0 -131 24q-37 15 -68 15q-26 0 -52.5 -31.5t-40 -60.5t-13.5 -35z " />
<glyph unicode="&#xf2;" horiz-adv-x="1490" d="M45 700q0 143 55.5 273.5t149 224.5t223 149.5t272.5 55.5q190 0 351.5 -94t255.5 -256t94 -353q0 -190 -94 -351.5t-255.5 -255t-351.5 -93.5q-143 0 -272.5 55.5t-223 149t-149 223t-55.5 272.5zM199 700q0 -110 43.5 -210.5t116.5 -173.5t174 -116.5t212 -43.5 q147 0 272 73t198 198.5t73 272.5t-73 273t-198 200t-272 74q-148 0 -274 -74t-199 -200t-73 -273zM559 1436l31 151l342 -71l-31 -152z" />
<glyph unicode="&#xf3;" horiz-adv-x="1490" d="M45 700q0 143 55.5 273.5t149 224.5t223 149.5t272.5 55.5q190 0 351.5 -94t255.5 -256t94 -353q0 -190 -94 -351.5t-255.5 -255t-351.5 -93.5q-143 0 -272.5 55.5t-223 149t-149 223t-55.5 272.5zM199 700q0 -110 43.5 -210.5t116.5 -173.5t174 -116.5t212 -43.5 q147 0 272 73t198 198.5t73 272.5t-73 273t-198 200t-272 74q-148 0 -274 -74t-199 -200t-73 -273zM559 1516l342 71l31 -151l-342 -72z" />
<glyph unicode="&#xf4;" horiz-adv-x="1495" d="M47 700q0 191 93.5 353t255 256t352.5 94q143 0 272.5 -55.5t223 -149.5t149 -224.5t55.5 -273.5t-55.5 -272.5t-149 -223t-223 -149t-272.5 -55.5t-273 55.5t-223.5 149t-149 223t-55.5 272.5zM201 700q0 -147 73.5 -272.5t199.5 -198.5t274 -73q110 0 210.5 43.5 t173 116.5t115.5 173.5t43 210.5q0 147 -72.5 273t-197.5 200t-272 74q-148 0 -274 -74t-199.5 -200t-73.5 -273zM463 1516l270 55l33 -152l-270 -55zM729 1419l31 152l270 -55l-31 -152z" />
<glyph unicode="&#xf5;" horiz-adv-x="1495" d="M47 700q0 191 93.5 353t255 256t352.5 94q143 0 272.5 -55.5t223 -149.5t149 -224.5t55.5 -273.5t-55.5 -272.5t-149 -223t-223 -149t-272.5 -55.5t-273 55.5t-223.5 149t-149 223t-55.5 272.5zM201 700q0 -147 73.5 -272.5t199.5 -198.5t274 -73q110 0 210.5 43.5 t173 116.5t115.5 173.5t43 210.5q0 147 -72.5 273t-197.5 200t-272 74q-148 0 -274 -74t-199.5 -200t-73.5 -273zM414 1501q140 90 252 90q73 0 125 -24q41 -13 73 -13q29 0 66 16.5t56.5 30t23.5 17.5l92 -121q-9 -9 -39 -29t-90 -43.5t-113 -23.5q-77 0 -131 24 q-38 15 -65 15t-54.5 -31.5t-41 -60.5t-13.5 -35z" />
<glyph unicode="&#xf6;" horiz-adv-x="1495" d="M47 700q0 191 93.5 353t255 256t352.5 94q143 0 272.5 -55.5t223 -149.5t149 -224.5t55.5 -273.5t-55.5 -272.5t-149 -223t-223 -149t-272.5 -55.5t-273 55.5t-223.5 149t-149 223t-55.5 272.5zM201 700q0 -147 73.5 -272.5t199.5 -198.5t274 -73q110 0 210.5 43.5 t173 116.5t115.5 173.5t43 210.5q0 147 -72.5 273t-197.5 200t-272 74q-148 0 -274 -74t-199.5 -200t-73.5 -273zM487 1466q0 42 26.5 69.5t66.5 27.5q43 0 70.5 -27t27.5 -70q0 -41 -27.5 -67.5t-70.5 -26.5q-40 0 -66.5 26.5t-26.5 67.5zM809 1466q0 42 27 69.5t67 27.5 q43 0 69.5 -27t26.5 -70q0 -41 -26.5 -67.5t-69.5 -26.5q-40 0 -67 26.5t-27 67.5z" />
<glyph unicode="&#xf7;" horiz-adv-x="735" d="M20 635v164h697v-164h-697zM252 467q0 50 30.5 80.5t75.5 30.5q50 0 80.5 -30t30.5 -81q0 -46 -31 -75.5t-80 -29.5q-45 0 -75.5 30t-30.5 75zM252 967q0 50 30.5 80t75.5 30q50 0 80.5 -29.5t30.5 -80.5q0 -46 -31 -75.5t-80 -29.5q-45 0 -75.5 30t-30.5 75z" />
<glyph unicode="&#xf8;" horiz-adv-x="1507" d="M53 700q0 143 55 273.5t148.5 224.5t223.5 149.5t274 55.5q143 0 272.5 -55.5t223 -149.5t149 -224.5t55.5 -273.5t-55.5 -272.5t-149 -223t-223 -149t-272.5 -55.5q-144 0 -274 55.5t-223.5 149t-148.5 223t-55 272.5zM211 700q0 -181 106 -321l760 758 q-140 106 -323 106q-109 0 -209.5 -43.5t-173.5 -116.5t-116.5 -173.5t-43.5 -209.5zM430 266q130 -104 324 -104q146 0 270 72t196 196t72 270q0 194 -104 324z" />
<glyph unicode="&#xf9;" horiz-adv-x="1077" d="M66 424v979h161v-979q0 -6 2 -22t11.5 -50.5t25.5 -62.5q41 -58 113.5 -92.5t161.5 -34.5q197 0 274 129q16 29 25.5 63t11.5 49.5t2 20.5v979h160v-979q0 -7 -4 -35t-19 -81.5t-37 -96.5q-22 -39 -54 -73t-81 -67t-120.5 -52t-157.5 -19t-158 19t-121.5 51.5t-82 67 t-54.5 73.5q-22 43 -36.5 96.5t-18.5 81t-4 35.5zM344 1436l31 151l342 -71l-31 -152z" />
<glyph unicode="&#xfa;" horiz-adv-x="1077" d="M66 424v979h161v-979q0 -6 2 -22t11.5 -50.5t25.5 -62.5q41 -58 113.5 -92.5t161.5 -34.5q197 0 274 129q16 29 25.5 63t11.5 49.5t2 20.5v979h160v-979q0 -7 -4 -35t-19 -81.5t-37 -96.5q-22 -39 -54 -73t-81 -67t-120.5 -52t-157.5 -19t-158 19t-121.5 51.5t-82 67 t-54.5 73.5q-22 43 -36.5 96.5t-18.5 81t-4 35.5zM336 1516l342 71l31 -151l-344 -72z" />
<glyph unicode="&#xfb;" horiz-adv-x="1083" d="M68 424v979h161v-979q0 -6 2 -22t11.5 -50.5t25.5 -62.5q41 -58 113.5 -92.5t161.5 -34.5q197 0 274 129q16 29 25.5 63t11.5 49.5t2 20.5v979h160v-979q0 -7 -4 -35t-19 -81.5t-37 -96.5q-22 -39 -54 -73t-81 -67t-120.5 -52t-157.5 -19t-158 19t-121.5 51.5t-82 67 t-54.5 73.5q-22 43 -36.5 96.5t-18.5 81t-4 35.5zM260 1516l272 55l31 -152l-270 -55zM526 1419l31 152l270 -55l-30 -152z" />
<glyph unicode="&#xfc;" horiz-adv-x="1083" d="M68 424v979h161v-979q0 -6 2 -22t11.5 -50.5t25.5 -62.5q41 -58 113.5 -92.5t161.5 -34.5q197 0 274 129q16 29 25.5 63t11.5 49.5t2 20.5v979h160v-979q0 -7 -4 -35t-19 -81.5t-37 -96.5q-22 -39 -54 -73t-81 -67t-120.5 -52t-157.5 -19t-158 19t-121.5 51.5t-82 67 t-54.5 73.5q-22 43 -36.5 96.5t-18.5 81t-4 35.5zM283 1466q0 43 26 70t66 27q43 0 70.5 -27t27.5 -70q0 -41 -27.5 -67.5t-70.5 -26.5q-40 0 -66 26.5t-26 67.5zM604 1466q0 42 27 69.5t67 27.5q43 0 70 -27t27 -70q0 -41 -27 -67.5t-70 -26.5q-40 0 -67 26.5t-27 67.5z " />
<glyph unicode="&#x152;" horiz-adv-x="1337" d="M49 717q0 138 53.5 271t155.5 235q101 103 232 157t276 54h510v-164h-381v-471h381v-164h-381v-471h381v-164h-510q-145 0 -276 54t-232 155q-102 102 -155.5 235.5t-53.5 272.5zM207 717q0 -229 166 -395q68 -71 160.5 -114t193.5 -50v1116q-212 -16 -354 -164 q-82 -80 -124 -182t-42 -211zM727 72v86h90z" />
<glyph unicode="&#x153;" horiz-adv-x="1452" d="M53 700q0 137 52.5 266t152.5 230q207 207 498 207h639v-160h-514v-461h514v-161h-514v-459h514v-162h-639q-287 0 -498 205q-99 99 -152 229.5t-53 265.5zM209 700q0 -227 162 -385q67 -69 158 -110t188 -49v1091q-201 -15 -346 -160q-162 -158 -162 -387zM717 70v86h82 z" />
<glyph unicode="&#x2c6;" horiz-adv-x="698" d="M61 1548l275 60l31 -156l-277 -55zM332 1452l30 156l277 -60l-33 -151z" />
<glyph unicode="&#x2000;" horiz-adv-x="830" />
<glyph unicode="&#x2001;" horiz-adv-x="1661" />
<glyph unicode="&#x2002;" horiz-adv-x="830" />
<glyph unicode="&#x2003;" horiz-adv-x="1661" />
<glyph unicode="&#x2004;" horiz-adv-x="553" />
<glyph unicode="&#x2005;" horiz-adv-x="415" />
<glyph unicode="&#x2006;" horiz-adv-x="276" />
<glyph unicode="&#x2007;" horiz-adv-x="276" />
<glyph unicode="&#x2008;" horiz-adv-x="207" />
<glyph unicode="&#x2009;" horiz-adv-x="332" />
<glyph unicode="&#x200a;" horiz-adv-x="92" />
<glyph unicode="&#x2010;" d="M78 635v164h758v-164h-758z" />
<glyph unicode="&#x2011;" d="M78 635v164h758v-164h-758z" />
<glyph unicode="&#x2012;" d="M78 635v164h758v-164h-758z" />
<glyph unicode="&#x2013;" horiz-adv-x="1101" d="M78 635v164h946v-164h-946z" />
<glyph unicode="&#x2014;" horiz-adv-x="1224" d="M78 631v168h1069v-168h-1069z" />
<glyph unicode="&#x2022;" horiz-adv-x="473" d="M55 639q0 81 52 133.5t126 52.5q80 0 132.5 -52t52.5 -134q0 -73 -53 -124.5t-132 -51.5q-72 0 -125 52t-53 124z" />
<glyph unicode="&#x202f;" horiz-adv-x="332" />
<glyph unicode="&#x205f;" horiz-adv-x="415" />
<glyph unicode="&#x20ac;" horiz-adv-x="1501" d="M35 424v164h170q-6 59 -6 129q0 90 6 133h-170v164h227q87 185 264.5 302.5t388.5 117.5q146 0 283.5 -64.5t249.5 -177.5l-111 -111q-89 91 -199.5 142t-222.5 51q-154 0 -279 -69t-198 -191h697v-164h-762q-19 -82 -19 -133q0 -58 19 -129h762v-164h-699 q75 -122 202 -194t277 -72q110 0 219.5 49.5t200.5 142.5l111 -112q-114 -114 -251.5 -176t-279.5 -62q-214 0 -392.5 117.5t-264.5 306.5h-223z" />
<glyph unicode="&#xe000;" horiz-adv-x="1402" d="M0 0v1403h1403v-1403h-1403z" />
</font>
</defs>
</svg>
